<svg xmlns="http://www.w3.org/2000/svg" viewBox="0 0 664.39 663.56"><defs><style>.cls-1{fill:#b9b9b9;}</style></defs><g id="Layer_2" data-name="Layer 2"><g id="Layer_1-2" data-name="Layer 1"><path class="cls-1" d="M177.26,52.14l8.6,15.22L181.23,70l-8.6-15.22L170.37,56,168,51.93l2.27-1.28-3.64-6.44,4.63-2.62L174.94,48l2.78-1.57,2.33,4.11Z"/><path class="cls-1" d="M203.05,58.53l-5-10.2c-1.41-2.87-3.42-5.8-7-4s-2.38,5.32-1,8.08l5,10.12-4.78,2.35-13-26.57L181.89,36l4,8A7.94,7.94,0,0,1,190,39.37a9.11,9.11,0,0,1,7.64,0,10.79,10.79,0,0,1,4.52,5.22l5.68,11.56Z"/><path class="cls-1" d="M201.8,32l-1.91-4.49,4.9-2.08,1.91,4.49Zm9.66,22.76L202.78,34.3l4.9-2.08,8.68,20.44Z"/><path class="cls-1" d="M233.5,46.14l-3.73-10.31c-1.05-2.9-2.91-6.52-6.64-5.17a4.61,4.61,0,0,0-2.75,3.08c-.43,1.64.43,4,1,5.56L225,49.23,220,51,212.4,30.16,217,28.49l.65,1.8a8.13,8.13,0,0,1,4.81-4.59,9.07,9.07,0,0,1,7.33.63c2.32,1.37,3.6,4,4.49,6.41l4.19,11.59Z"/><path class="cls-1" d="M255.53,39.48l-10-8-.08,0,2.78,10-5.13,1.42-7.9-28.53L240.3,13l4.77,17.19.07,0,4-11.95,5.9-1.63-4.81,12.62L262,37.68Z"/><path class="cls-1" d="M320,12.47l.8,17.46-5.31.24-.8-17.46-2.6.12-.21-4.72L314.49,8,314.15.6l5.32-.24.34,7.39L323,7.6l.22,4.72Z"/><path class="cls-1" d="M340.13,29.83l.18-11.36c.05-3.2-.41-6.73-4.45-6.79s-4.54,3.64-4.59,6.72l-.18,11.28-5.32-.08L326.24,0l5.32.09-.14,9a7.93,7.93,0,0,1,5.79-2.22A9.11,9.11,0,0,1,344,10.33a10.8,10.8,0,0,1,1.65,6.7l-.2,12.88Z"/><path class="cls-1" d="M349.39,30.21l1.44-22.16,5.31.35L354.7,30.55ZM351,5.54l.31-4.87,5.31.34-.32,4.87Z"/><path class="cls-1" d="M372.94,32.43l1.3-10.88c.36-3.06.32-7.13-3.61-7.6a4.57,4.57,0,0,0-3.84,1.51c-1.12,1.28-1.42,3.78-1.62,5.41l-1.25,10.48-5.28-.63,2.63-22,4.89.58-.23,1.91a8.08,8.08,0,0,1,6.35-1.94,9.06,9.06,0,0,1,6.27,3.85c1.46,2.27,1.44,5.17,1.13,7.75l-1.46,12.23Z"/><path class="cls-1" d="M395.63,36.38l-5.36-11.67h-.08l-2,10.2-5.22-1,5.75-29,5.22,1-3.46,17.5.07,0,9-8.87,6,1.19-10,9.12,6.67,12.86Z"/><path class="cls-1" d="M465.36,41.22l-7.15,16L453.36,55l7.14-16L458.13,38l1.93-4.31,2.37,1.07,3-6.76,4.85,2.18-3,6.75,2.92,1.31-1.93,4.31Z"/><path class="cls-1" d="M475.55,65.79l5.25-10.08c1.47-2.84,2.64-6.2-.95-8.07s-5.69,1.24-7.11,4l-5.21,10-4.72-2.46L476.47,32.9l4.72,2.45-4.13,7.95a8,8,0,0,1,6.18.6,9.14,9.14,0,0,1,4.5,6.18,10.87,10.87,0,0,1-1.52,6.74l-6,11.43Z"/><path class="cls-1" d="M483.57,70.3l11.3-19.12,4.58,2.71L488.15,73ZM496.15,49l2.48-4.2,4.58,2.71-2.48,4.2Z"/><path class="cls-1" d="M503.59,82.94l6.08-9.12c1.71-2.56,3.52-6.21.23-8.41a4.61,4.61,0,0,0-4.12-.39c-1.57.63-3,2.73-3.88,4.1L496,77.9l-4.43-3,12.32-18.47,4.1,2.73L507,60.81A8.1,8.1,0,0,1,513.51,62a9.07,9.07,0,0,1,3.84,6.27c.28,2.69-1.05,5.26-2.5,7.42L508,85.89Z"/><path class="cls-1" d="M522,96.7l.49-12.82-.06,0L516,92l-4.18-3.28L530.1,65.43l4.19,3.28-11,14.05.07,0,12-3.86,4.82,3.77-13,3.64.14,14.49Z"/><path class="cls-1" d="M582.13,132.45l-13.55,11-3.37-4.12,13.56-11-1.64-2,3.66-3,1.64,2,5.74-4.67,3.36,4.12-5.74,4.68,2,2.48-3.66,3Z"/><path class="cls-1" d="M580.18,159l9.21-6.65c2.59-1.87,5.14-4.36,2.78-7.63s-5.64-1.45-8.14.35l-9.14,6.6-3.12-4.31,24-17.33,3.11,4.31-7.26,5.25a7.9,7.9,0,0,1,5.25,3.31,9.09,9.09,0,0,1,1.25,7.53,10.85,10.85,0,0,1-4.38,5.34l-10.45,7.54Z"/><path class="cls-1" d="M585.33,166.6l18.68-12,2.87,4.47-18.67,12Zm20.8-13.37,4.1-2.64,2.88,4.48L609,157.71Z"/><path class="cls-1" d="M597.54,186.87l9.53-5.42c2.68-1.52,5.93-4,4-7.41a4.62,4.62,0,0,0-3.5-2.2c-1.69-.14-3.88,1.11-5.31,1.92L593.05,179l-2.63-4.63,19.3-11,2.43,4.28-1.67.94a8.1,8.1,0,0,1,5.34,4,9.08,9.08,0,0,1,.63,7.33c-1,2.52-3.31,4.22-5.57,5.51l-10.71,6.09Z"/><path class="cls-1" d="M607.84,207.46l6.2-11.24,0-.07-9.41,4.44-2.27-4.81,26.77-12.63,2.27,4.81-16.13,7.61,0,.08,12.46,1.95,2.61,5.53-13.25-2.59-6.38,13Z"/><path class="cls-1" d="M645.38,266.43l-17.08,3.72L627.17,265l17.08-3.73-.56-2.54,4.61-1,.56,2.54,7.23-1.57,1.13,5.19L650,265.42l.68,3.13-4.61,1Z"/><path class="cls-1" d="M631.67,289.21l11.22-1.77c3.16-.5,6.56-1.56,5.93-5.55s-4.38-3.85-7.42-3.37l-11.14,1.76-.83-5.25,29.23-4.62.83,5.25-8.84,1.4a8,8,0,0,1,3.18,5.33,9.07,9.07,0,0,1-2.29,7.28c-1.63,1.72-4,2.42-6.32,2.79l-12.72,2Z"/><path class="cls-1" d="M632.81,298.36l22.08-2.27.55,5.3-22.09,2.27Zm24.59-2.52,4.86-.5.54,5.29-4.85.5Z"/><path class="cls-1" d="M634.54,322l11-.53c3.07-.15,7.08-.87,6.89-4.82a4.62,4.62,0,0,0-2.13-3.54c-1.45-.89-4-.77-5.6-.69l-10.55.51-.26-5.31L656,306.51l.24,4.92-1.92.09a8.1,8.1,0,0,1,3,5.94,9.12,9.12,0,0,1-2.76,6.82c-2,1.82-4.85,2.28-7.45,2.4l-12.3.6Z"/><path class="cls-1" d="M634.45,345l10.6-7.24v-.08l-10.4-.28.14-5.32,29.6.79-.15,5.32-17.83-.48v.08l10.24,7.36-.16,6.12L645.83,343l-11.56,8.74Z"/><path class="cls-1" d="M641.49,414.57l-16.93-4.33,1.32-5.16,16.93,4.34.65-2.52,4.57,1.17-.64,2.52,7.17,1.83-1.32,5.16-7.17-1.84-.8,3.1-4.57-1.17Z"/><path class="cls-1" d="M619,428.76l10.82,3.45c3,1,6.56,1.55,7.79-2.29s-2.18-5.4-5.12-6.34l-10.74-3.44,1.62-5.06,28.19,9L650,429.16l-8.53-2.73a7.93,7.93,0,0,1,.46,6.19,9.15,9.15,0,0,1-5.32,5.48,10.83,10.83,0,0,1-6.9-.36l-12.27-3.92Z"/><path class="cls-1" d="M615.92,437.44l20.75,7.9-1.9,5L614,442.41Zm23.1,8.8,4.56,1.74-1.89,5-4.56-1.74Z"/><path class="cls-1" d="M606.85,459.29l10,4.45c2.81,1.25,6.71,2.42,8.32-1.2a4.61,4.61,0,0,0-.31-4.12c-.89-1.45-3.19-2.47-4.69-3.13L610.54,451l2.16-4.87,20.28,9-2,4.5-1.76-.78a8.09,8.09,0,0,1,0,6.64,9.07,9.07,0,0,1-5.53,4.85c-2.6.73-5.36-.15-7.73-1.2l-11.26-5Z"/><path class="cls-1" d="M596.38,479.81l12.73-1.68,0-.07L600,473.12l2.53-4.68,26.05,14.05L626,487.18l-15.7-8.48,0,.07L616.13,490l-2.91,5.39-5.77-12.21-14.26,2.58Z"/><path class="cls-1" d="M571.23,545l-13.15-11.51,3.5-4L574.74,541l1.71-2,3.55,3.11-1.71,2,5.57,4.87-3.51,4-5.56-4.87-2.11,2.41-3.55-3.11Z"/><path class="cls-1" d="M544.77,547.56l8.11,8c2.28,2.24,5.15,4.34,8,1.46s.49-5.8-1.71-8l-8-7.91,3.72-3.79L576,558.06l-3.73,3.8-6.39-6.28a7.94,7.94,0,0,1-2.38,5.73,9.15,9.15,0,0,1-7.22,2.5c-2.35-.29-4.34-1.8-6-3.43l-9.19-9Z"/><path class="cls-1" d="M538.1,553.92l15,16.39-3.92,3.59-15-16.39Zm16.67,18.25,3.29,3.6-3.92,3.59-3.3-3.6Z"/><path class="cls-1" d="M520.17,569.37l7,8.48c2,2.38,4.91,5.17,8,2.66a4.59,4.59,0,0,0,1.58-3.82c-.15-1.69-1.74-3.64-2.78-4.91l-6.69-8.17,4.11-3.37,14.07,17.18-3.81,3.11-1.21-1.48a8.13,8.13,0,0,1-3,5.92,9,9,0,0,1-7.12,1.85c-2.65-.52-4.72-2.54-6.37-4.55l-7.8-9.53Z"/><path class="cls-1" d="M501.61,583l12.12,4.21.07,0-6-8.52,4.36-3,17,24.25-4.36,3-10.22-14.62-.07.05.18,12.61-5,3.51.32-13.5-13.89-4.1Z"/><path class="cls-1" d="M449.84,630l-6.58-16.2,4.93-2,6.58,16.2,2.41-1,1.77,4.38-2.41,1,2.79,6.86-4.93,2-2.79-6.85-3,1.2-1.78-4.37Z"/><path class="cls-1" d="M425.07,620.33l3.65,10.77c1,3,2.65,6.19,6.48,4.9s3.05-5,2.06-7.88l-3.63-10.69,5-1.71,9.51,28-5,1.71L440.26,637a7.91,7.91,0,0,1-4.71,4,9.13,9.13,0,0,1-7.57-1,10.83,10.83,0,0,1-3.81-5.77L420,622Z"/><path class="cls-1" d="M416.24,623l6,21.38-5.12,1.44-6-21.39Zm6.65,23.81,1.31,4.7L419.08,653l-1.31-4.7Z"/><path class="cls-1" d="M393.28,628.7l2.36,10.7c.67,3,2.05,6.84,5.91,6a4.67,4.67,0,0,0,3.14-2.7c.63-1.58.09-4-.27-5.64l-2.28-10.31,5.2-1.15,4.79,21.68-4.8,1.06-.42-1.87a8.13,8.13,0,0,1-5.36,3.92,9.07,9.07,0,0,1-7.19-1.56c-2.12-1.66-3.06-4.4-3.62-6.94l-2.66-12Z"/><path class="cls-1" d="M370.58,632.46l8.91,9.24h.08l-1.47-10.3,5.27-.75,4.17,29.3-5.27.75L379.76,643h-.08l-5.54,11.34-6.06.86,6.39-11.9-10.54-9.93Z"/><path class="cls-1" d="M303.18,651l1.41-17.42,5.31.43-1.42,17.43,2.59.21-.38,4.7-2.59-.21-.6,7.38-5.3-.43.6-7.38-3.19-.26.38-4.7Z"/><path class="cls-1" d="M285.39,631.29l-1.57,11.25c-.44,3.17-.41,6.73,3.59,7.29s4.95-3.07,5.37-6.12l1.57-11.17,5.26.74-4.09,29.31-5.27-.73,1.24-8.88a7.92,7.92,0,0,1-6,1.5,9.13,9.13,0,0,1-6.3-4.31c-1.17-2.06-1.14-4.56-.82-6.86l1.79-12.76Z"/><path class="cls-1" d="M271.54,654l-.94,4.79-5.22-1,.94-4.79Zm4.75-24.26L272,651.51l-5.22-1,4.27-21.79Z"/><path class="cls-1" d="M253.23,624.49l-2.69,10.63c-.76,3-1.25,7,2.59,8a4.61,4.61,0,0,0,4-1c1.28-1.12,1.89-3.57,2.3-5.15L262,626.72l5.15,1.3-5.44,21.52-4.77-1.2.47-1.87a8.09,8.09,0,0,1-6.55,1.11,9.08,9.08,0,0,1-5.72-4.62c-1.16-2.44-.76-5.31-.12-7.83l3-11.94Z"/><path class="cls-1" d="M231.24,617.66l3.81,12.25.08,0,3.31-9.86,5.05,1.7-9.44,28.05-5.05-1.7,5.69-16.91-.07,0-10,7.63-5.8-2,11.05-7.76-5-13.61Z"/><path class="cls-1" d="M162.7,603.87,171.84,589l4.53,2.78-9.13,14.91,2.21,1.36L167,612l-2.22-1.36L160.9,617l-4.53-2.78,3.87-6.31-2.73-1.67,2.46-4Z"/><path class="cls-1" d="M155.76,578.19l-6.49,9.32c-1.83,2.63-3.42,5.82-.1,8.12s5.8-.49,7.56-3l6.45-9.25,4.36,3-16.91,24.29-4.37-3,5.12-7.36a7.92,7.92,0,0,1-6-1.38,9.13,9.13,0,0,1-3.67-6.7c-.11-2.37,1.05-4.59,2.37-6.49l7.37-10.57Z"/><path class="cls-1" d="M133.18,592.19l-3,3.85L126,592.77l3-3.85Zm15.2-19.49-13.65,17.5-4.19-3.27,13.65-17.5Z"/><path class="cls-1" d="M130.15,557.61,123,565.87c-2,2.33-4.29,5.71-1.3,8.31a4.61,4.61,0,0,0,4,.92c1.64-.43,3.3-2.33,4.38-3.57l6.93-8,4,3.49L126.44,583.8l-3.71-3.23,1.26-1.44a8.13,8.13,0,0,1-6.35-2,9.08,9.08,0,0,1-3-6.71c.06-2.7,1.71-5.08,3.42-7l8.09-9.29Z"/><path class="cls-1" d="M113.59,541.58l-2.12,12.66.06.06,7.4-7.31,3.74,3.79L101.6,571.57l-3.74-3.79,12.7-12.53-.06-.06-12.4,2.3-4.3-4.36,13.36-2,1.71-14.38Z"/><path class="cls-1" d="M58.56,498.48l14.85-9.22,2.8,4.52L61.36,503l1.37,2.21-4,2.48-1.37-2.21-6.28,3.91-2.81-4.52L54.55,501l-1.69-2.71,4-2.49Z"/><path class="cls-1" d="M63.88,472.43l-10,5.42c-2.81,1.53-5.66,3.66-3.73,7.21s5.41,2.16,8.11.7l9.92-5.38,2.53,4.67-26,14.12-2.54-4.68,7.88-4.27a7.93,7.93,0,0,1-4.79-4,9.09,9.09,0,0,1-.27-7.63,10.79,10.79,0,0,1,5-4.73l11.32-6.14Z"/><path class="cls-1" d="M37.4,474.76,33,476.85l-2.28-4.8L35.12,470Zm22.34-10.59-20.07,9.51-2.28-4.8,20.07-9.51Z"/><path class="cls-1" d="M50.24,442.52l-10.15,4.14c-2.85,1.17-6.39,3.18-4.89,6.84a4.61,4.61,0,0,0,3.19,2.63c1.66.36,4-.59,5.51-1.21l9.77-4,2,4.92-20.55,8.4-1.86-4.55,1.78-.73a8.08,8.08,0,0,1-4.78-4.61A9.05,9.05,0,0,1,30.6,447c1.27-2.38,3.82-3.76,6.22-4.74l11.4-4.67Z"/><path class="cls-1" d="M42.68,420.79l-7.59,10.34,0,.08L45,428l1.63,5.06-28.17,9.07-1.63-5.06,17-5.47,0-.08L21.69,428l-1.88-5.82,12.81,4.28,8-12.07Z"/><path class="cls-1" d="M13.05,357.47,30.47,356l.46,5.31-17.42,1.5.22,2.59-4.7.41-.22-2.59-7.38.64L1,358.52l7.37-.64-.28-3.19,4.71-.41Z"/><path class="cls-1" d="M29.57,336.62l-11.36.32c-3.19.09-6.7.71-6.58,4.75s3.84,4.37,6.92,4.28l11.28-.32L30,351l-29.59.85L.24,346.5l9-.26a7.94,7.94,0,0,1-2.49-5.69,9.1,9.1,0,0,1,3.21-6.93c1.83-1.5,4.3-1.89,6.62-1.95l12.87-.37Z"/><path class="cls-1" d="M4.88,326.8,0,326.68l.13-5.32,4.88.12Zm24.72.6-22.2-.54.13-5.32,22.2.54Z"/><path class="cls-1" d="M30.86,303.78l-10.92-.86c-3.07-.24-7.14,0-7.45,3.91a4.58,4.58,0,0,0,1.67,3.78c1.32,1.07,3.83,1.27,5.47,1.39l10.52.83-.41,5.3L7.61,316.4,8,311.49l1.92.15a8.11,8.11,0,0,1-2.2-6.27A9.11,9.11,0,0,1,11.3,299c2.21-1.55,5.11-1.64,7.7-1.44l12.28,1Z"/><path class="cls-1" d="M33.87,281l-11.43,5.83v.08l10.27,1.6-.81,5.25L2.64,289.17l.82-5.25,17.62,2.74,0-.08L11.87,278l.94-6.05,9.52,9.58,12.58-7.19Z"/><path class="cls-1" d="M44.6,191.56l15.76,7.56-2.3,4.8L42.3,196.36l-1.13,2.34-4.25-2L38,194.32l-6.67-3.2,2.3-4.8,6.67,3.2,1.39-2.89,4.25,2Z"/><path class="cls-1" d="M69.41,182l-9.94-5.5c-2.8-1.55-6.13-2.8-8.09.74s1.09,5.72,3.78,7.21L65,190l-2.58,4.65-25.9-14.33,2.57-4.65L47,180a8,8,0,0,1,.76-6.17A9.16,9.16,0,0,1,54,169.45a10.82,10.82,0,0,1,6.7,1.7L72,177.38Z"/><path class="cls-1" d="M53.2,161l-4.13-2.59,2.82-4.51,4.14,2.6Zm21,13.13L55.34,162.32l2.82-4.51L77,169.6Z"/><path class="cls-1" d="M87.29,154.44l-9-6.32c-2.52-1.77-6.12-3.67-8.4-.44a4.6,4.6,0,0,0-.49,4.11c.59,1.59,2.65,3,4,4l8.63,6.08L79,166.21,60.85,153.42l2.83-4,1.57,1.1A8.14,8.14,0,0,1,66.56,144a9.13,9.13,0,0,1,6.37-3.69c2.69-.2,5.23,1.19,7.35,2.69l10.08,7.1Z"/><path class="cls-1" d="M101.54,136.35l-12.81-.82,0,.06,8,6.62-3.39,4.11L70.48,127.47l3.39-4.1,13.76,11.35.05-.06-3.55-12.1,3.9-4.73,3.3,13.1,14.49.24Z"/></g></g></svg>